<svg width="24" height="24" viewBox="0 0 24 24" fill="#1F1F1F" xmlns="http://www.w3.org/2000/svg">
<path d="M10.5525 2.67514C10.9579 2.33447 11.4705 2.14771 12 2.14771C12.5295 2.14771 13.0421 2.33447 13.4475 2.67514L20.1975 8.35114C20.4488 8.56227 20.6508 8.82581 20.7894 9.12328C20.928 9.42075 20.9999 9.74495 21 10.0731V19.5006C21 19.8985 20.842 20.28 20.5607 20.5613C20.2794 20.8426 19.8978 21.0006 19.5 21.0006H15.5C15.1022 21.0006 14.7206 20.8426 14.4393 20.5613C14.158 20.28 14 19.8985 14 19.5006V14.0006H10V19.5006C10 19.8985 9.84196 20.28 9.56066 20.5613C9.27936 20.8426 8.89782 21.0006 8.5 21.0006H4.5C4.10218 21.0006 3.72064 20.8426 3.43934 20.5613C3.15804 20.28 3 19.8985 3 19.5006V10.0724C3.00008 9.7442 3.07196 9.42 3.21059 9.12253C3.34922 8.82506 3.55124 8.56152 3.8025 8.35039L10.5525 2.67514ZM12.483 4.17611C12.3478 4.06229 12.1767 3.99988 12 3.99988C11.8233 3.99988 11.6522 4.06229 11.517 4.17611L5.267 9.42763C5.18357 9.49786 5.11645 9.58545 5.07034 9.68428C5.02422 9.78312 5.00022 9.89082 5 9.99988V18.9999H8V13.9999C8 13.6021 8 12.9999 8.5 12.4999C9 11.9999 9.60218 11.9999 10 11.9999H14C14.3978 11.9999 15 11.9999 15.5 12.4999C16 12.9999 16 13.6021 16 13.9999V18.9999H19V9.99988C19 9.89056 18.9761 9.78257 18.93 9.68346C18.8839 9.58435 18.8166 9.49653 18.733 9.42613L12.483 4.17611Z" />
</svg>
