<svg width="24" height="24" viewBox="0 0 24 24" fill="none" xmlns="http://www.w3.org/2000/svg">
<g clip-path="url(#clip0_1359_9612)">
<path d="M18.125 7.30757C17.6875 7.021 17.125 7.021 16.625 7.30757L13.125 9.67175L10.75 11.1762L7.3125 13.5404C6.875 13.827 6.3125 13.827 5.8125 13.5404L3.125 11.6777C2.6875 11.3912 2.375 10.818 2.375 10.1732V6.59115C2.375 6.01802 2.625 5.44488 3.125 5.08668L5.8125 3.29563C6.25 3.00906 6.8125 3.00906 7.3125 3.29563L10 5.15832C10.4375 5.44488 10.75 6.01802 10.75 6.6628V9.02697L13.125 7.45085V5.01503C13.125 4.4419 12.875 3.86876 12.375 3.51056L7.375 0.143392C6.9375 -0.143175 6.375 -0.143175 5.875 0.143392L0.75 3.5822C0.25 3.86876 0 4.4419 0 5.01503V11.7494C0 12.3225 0.25 12.8956 0.75 13.2538L5.8125 16.621C6.25 16.9076 6.8125 16.9076 7.3125 16.621L10.75 14.3285L13.125 12.7523L16.5625 10.4598C17 10.1732 17.5625 10.1732 18.0625 10.4598L20.75 12.2509C21.1875 12.5374 21.5 13.1106 21.5 13.7553V17.3374C21.5 17.9106 21.25 18.4837 20.75 18.8419L18.125 20.6329C17.6875 20.9195 17.125 20.9195 16.625 20.6329L13.9375 18.8419C13.5 18.5553 13.1875 17.9822 13.1875 17.3374V15.0449L10.8125 16.621V18.9852C10.8125 19.5583 11.0625 20.1315 11.5625 20.4897L16.625 23.8568C17.0625 24.1434 17.625 24.1434 18.125 23.8568L23.1875 20.4897C23.625 20.2031 23.9375 19.63 23.9375 18.9852V12.1792C23.9375 11.6061 23.6875 11.0329 23.1875 10.6747L18.125 7.30757Z" fill="#8247E5"/>
</g>
<defs>
<clipPath id="clip0_1359_9612">
<rect width="24" height="24" fill="white"/>
</clipPath>
</defs>
</svg>
