<svg width="24" height="24" viewBox="0 0 24 24" fill="#687684" xmlns="http://www.w3.org/2000/svg">
<path d="M12.7297 12.0247L9.18971 15.5647C9.00346 15.7521 8.89892 16.0055 8.89892 16.2697C8.89892 16.5339 9.00346 16.7873 9.18971 16.9747C9.28267 17.0684 9.39327 17.1428 9.51513 17.1936C9.63699 17.2444 9.7677 17.2705 9.89971 17.2705C10.0317 17.2705 10.1624 17.2444 10.2843 17.1936C10.4061 17.1428 10.5167 17.0684 10.6097 16.9747L14.8497 12.7347C14.9434 12.6417 15.0178 12.5311 15.0686 12.4093C15.1194 12.2874 15.1455 12.1567 15.1455 12.0247C15.1455 11.8927 15.1194 11.762 15.0686 11.6401C15.0178 11.5183 14.9434 11.4077 14.8497 11.3147L10.6097 7.02471C10.5163 6.93203 10.4055 6.8587 10.2836 6.80894C10.1618 6.75917 10.0313 6.73395 9.89971 6.73471C9.7681 6.73395 9.63764 6.75917 9.5158 6.80894C9.39397 6.8587 9.28315 6.93203 9.18971 7.02471C9.00346 7.21207 8.89892 7.46552 8.89892 7.72971C8.89892 7.9939 9.00346 8.24735 9.18971 8.43471L12.7297 12.0247Z" />
</svg>
