<svg width="24" height="24" viewBox="0 0 24 24" fill="none" xmlns="http://www.w3.org/2000/svg">
<g clip-path="url(#clip0_1359_9615)">
<path d="M23.0811 7.22995C21.9561 6.1912 20.3998 4.60495 19.1323 3.47995L19.0573 3.42745C18.9325 3.32724 18.7918 3.24866 18.6411 3.19495C15.5848 2.62495 1.36105 -0.0337977 1.08355 -4.77363e-05C1.0058 0.0108423 0.931473 0.0390342 0.866055 0.0824523L0.794805 0.138702C0.707071 0.227803 0.640436 0.335444 0.599805 0.453702L0.581055 0.502452V0.768702V0.809952C2.1823 5.2687 8.50481 19.875 9.74981 23.3025C9.82481 23.535 9.96731 23.9775 10.2336 24H10.2936C10.4361 24 11.0436 23.1975 11.0436 23.1975C11.0436 23.1975 21.9036 10.0275 23.0023 8.62495C23.1445 8.45219 23.2701 8.26637 23.3773 8.06995C23.4047 7.91628 23.3918 7.75813 23.3399 7.61092C23.2879 7.46371 23.1988 7.33246 23.0811 7.22995ZM13.8298 8.7637L18.4648 4.91995L21.1836 7.42495L13.8298 8.7637ZM12.0298 8.51245L4.0498 1.97245L16.9611 4.3537L12.0298 8.51245ZM12.7498 10.2262L20.9173 8.90995L11.5798 20.16L12.7498 10.2262ZM2.96605 2.62495L11.3623 9.74995L10.1473 20.1675L2.96605 2.62495Z" fill="#FF060A"/>
</g>
<defs>
<clipPath id="clip0_1359_9615">
<rect width="24" height="24" fill="white"/>
</clipPath>
</defs>
</svg>
