<svg width="17" height="16" viewBox="0 0 17 16" fill="none" xmlns="http://www.w3.org/2000/svg">
<path d="M7.73933 0.891383C8.13855 0.423561 8.86145 0.42356 9.26067 0.891383L10.1736 1.96113C10.4016 2.22838 10.7532 2.35634 11.0997 2.29821L12.4866 2.06553C13.0932 1.96377 13.6469 2.42845 13.652 3.04344L13.6637 4.4497C13.6667 4.80102 13.8537 5.12504 14.1565 5.30323L15.3685 6.01648C15.8986 6.3284 16.0241 7.04033 15.6327 7.51472L14.7377 8.59949C14.5141 8.8705 14.4492 9.23896 14.5666 9.57009L15.0366 10.8955C15.2421 11.4752 14.8807 12.1012 14.2759 12.2131L12.893 12.4688C12.5476 12.5327 12.261 12.7732 12.138 13.1023L11.6461 14.4197C11.4309 14.9959 10.7516 15.2431 10.2165 14.9401L8.99278 14.2471C8.68707 14.0739 8.31293 14.0739 8.00722 14.2471L6.78351 14.9401C6.24836 15.2431 5.56905 14.9959 5.35391 14.4197L4.86195 13.1023C4.73905 12.7732 4.45244 12.5327 4.10696 12.4688L2.72409 12.2131C2.11934 12.1012 1.75789 11.4752 1.96342 10.8955L2.43341 9.57009C2.55082 9.23896 2.48585 8.8705 2.26226 8.59949L1.36729 7.51472C0.975898 7.04033 1.10143 6.3284 1.63147 6.01648L2.84348 5.30323C3.14628 5.12504 3.33335 4.80102 3.33627 4.4497L3.34796 3.04344C3.35307 2.42845 3.90685 1.96377 4.51338 2.06553L5.90031 2.29821C6.2468 2.35634 6.59838 2.22838 6.82644 1.96113L7.73933 0.891383Z" fill="#1886FF"/>
<path d="M11.4139 5.51993C11.4559 5.47707 11.506 5.44303 11.5614 5.41979C11.6167 5.39655 11.6761 5.38458 11.7361 5.38458C11.7961 5.38458 11.8555 5.39655 11.9108 5.41979C11.9661 5.44303 12.0162 5.47707 12.0582 5.51993C12.2342 5.69777 12.2367 5.98516 12.0644 6.16608L8.42562 10.4676C8.3843 10.513 8.33417 10.5494 8.27828 10.5748C8.22239 10.6001 8.16192 10.6138 8.10057 10.6149C8.03923 10.6161 7.97829 10.6047 7.92149 10.5815C7.86469 10.5583 7.81322 10.5237 7.77023 10.4799L5.55608 8.23623C5.47068 8.14915 5.42285 8.03205 5.42285 7.91008C5.42285 7.78811 5.47068 7.67101 5.55608 7.58393C5.59807 7.54107 5.6482 7.50703 5.70352 7.48379C5.75883 7.46055 5.81823 7.44858 5.87823 7.44858C5.93823 7.44858 5.99763 7.46055 6.05295 7.48379C6.10826 7.50703 6.15839 7.54107 6.20038 7.58393L8.07854 9.48731L11.4016 5.53347C11.4054 5.52871 11.4096 5.52419 11.4139 5.51993Z" fill="white"/>
</svg>
